# xmcd
#
# Track frame offsets:
#	187
#	11880
#	26302
#	38792
#	58277
#	69395
#	81317
#	102482
#	116125
#	128445
#	144725
#	157682
#	170362
#	184982
#	198115
#	218322
#	229980
#	244790
#	256150
#	273095
#	289400
#	312645
#	325757
#	339562
#
# Disc length: 4747 seconds
#
# Revision: 1
# Processed by: cddbd v1.5.1PL0 Copyright (c) Steve Scherf et al.
# Submitted via: CDex 1.50Beta5
#
DISCID=59128918
DTITLE=Various Artist - ムード・ミュージック・ベスト・セレクション
DYEAR=1996
DGENRE=Listening
TTITLE0=ロミオとジュリエット(ヘンリー・マンシーニ楽団)
TTITLE1=マリア・エレーナ(ロス・インディオス・タバハラス)
TTITLE2=恋はみずいろ(アンドレ・ポップ・オーケストラ)
TTITLE3=フィーリング(フロイド・クレイマー)
TTITLE4=ひまわり(ヘンリー・マンシーニ楽団)
TTITLE5=スターダスト(ロス・インディオス・タバハラス)
TTITLE6=ソリテアー(アンドレ・ポップ)
TTITLE7=魅惑の宵(ジョージ・メラクリーノ楽団)
TTITLE8=ムーン・リヴァー(ヘンリー・マンシーニ楽団)
TTITLE9=グリーン・スリーヴス(ユーゴー・ウインターハルター楽団)
TTITLE10=ロンドンデリーの歌(チェット・アトキンス)
TTITLE11=至上の愛(フロイド・クレイマー)
TTITLE12=ライム・ライト(ユーゴー・ウインターハルター楽団)
TTITLE13=ある愛の詩(ヘンリー・マンシーニ楽団)
TTITLE14=枯葉(ジョージ・メラクリーノ楽団)
TTITLE15=煙が目にしみる(ロス・インディオス・タバハラス)
TTITLE16=クリスビーのブルース(スリー・サンズ)
TTITLE17=ラスト・デイト(フロイド・クレイマー)
TTITLE18=サバの女王(アンドレ・ポップ・オーケストラ)
TTITLE19=恋のアランフェス(チェット・アトキンス)
TTITLE20=アルハンブラの思い出(タルレガ)(ロス・インディオス・タバハラス)
TTITLE21=カナダの夕陽(ユーゴー・ウインターハルター楽団)
TTITLE22=いつか王子様が(チェット・アトキンス)
TTITLE23=引き潮(ジョニー・ダグラス楽団)
EXTD=
EXTT0=
EXTT1=
EXTT2=
EXTT3=
EXTT4=
EXTT5=
EXTT6=
EXTT7=
EXTT8=
EXTT9=
EXTT10=
EXTT11=
EXTT12=
EXTT13=
EXTT14=
EXTT15=
EXTT16=
EXTT17=
EXTT18=
EXTT19=
EXTT20=
EXTT21=
EXTT22=
EXTT23=
PLAYORDER=
